<?xml version="1.0" encoding="utf-8"?>
<!-- Generator: Adobe Illustrator 17.0.2, SVG Export Plug-In . SVG Version: 6.00 Build 0)  -->
<!DOCTYPE svg PUBLIC "-//W3C//DTD SVG 1.1//EN" "http://www.w3.org/Graphics/SVG/1.1/DTD/svg11.dtd">
<svg version="1.1" id="Layer_1" xmlns="http://www.w3.org/2000/svg" xmlns:xlink="http://www.w3.org/1999/xlink" x="0px" y="0px"
	 width="1024px" height="1024px" viewBox="0 0 1024 1024" enable-background="new 0 0 1024 1024" xml:space="preserve">
<g>
	<path opacity="0.8" fill="#286BAA" stroke="#FFFFFF" stroke-width="8.1423" stroke-miterlimit="10" d="M14.015,163.517
		c0,0,3.999-44.83,65.532-64.042L884.211,9.816c0,0,73.769-5.283,81.863,102.404l39.121,741.033c0,0-5.396,60.232-78.242,58.406
		l-801.303,96.736c0,0-64.752,29.203-58.007-76.659L14.015,163.517z"/>
	<path stroke="#FFFFFF" stroke-width="8.1423" stroke-miterlimit="10" d="M123.409,240.067c0,0,3.112-34.894,51.008-49.849
		l626.33-69.788c0,0,57.42-4.113,63.72,79.708l30.451,576.801c0,0-4.2,46.883-60.901,45.462l-623.714,75.297
		c0,0-50.401,22.731-45.151-59.669L123.409,240.067z"/>
	
		<line fill="none" stroke="#FFFFFF" stroke-width="8.1423" stroke-miterlimit="10" x1="164.014" y1="267.061" x2="795.422" y2="189.398"/>
	
		<line fill="none" stroke="#FFFFFF" stroke-width="8.1423" stroke-miterlimit="10" x1="193.46" y1="518.167" x2="824.868" y2="440.503"/>
	
		<line fill="none" stroke="#FFFFFF" stroke-width="8.1423" stroke-miterlimit="10" x1="209.611" y1="830.7" x2="841.019" y2="753.036"/>
	<g>
		<g>
			<path fill="#FFFFFF" stroke="#FFFFFF" stroke-width="8.1423" stroke-miterlimit="10" d="M588.215,320.98h-34.449v-32.36
				l92.479-45.304V474.15c0,0,55.806-71.192,119.585-49.618c0,0,71.751,33.439,65.373,151.013c0,0,1.594,101.394-76.534,135.911
				c0,0-86.101,15.101-114.801-18.337v37.782h-35.078C604.788,730.901,595.558,333.924,588.215,320.98z"/>
		</g>
		<path stroke="#FFFFFF" stroke-width="8.1423" stroke-miterlimit="10" d="M659,491.538c0,0,81.318-49.747,110.018,51.647
			c0,0,19.134,149.934-46.24,149.934c0,0-46.24-1.079-63.779-33.439V491.538z"/>
	</g>
	<g>
		<path fill="#FFFFFF" stroke="#FFFFFF" stroke-width="8.1423" stroke-miterlimit="10" d="M311.548,756.335l-38.149,4.074
			l1.756,30.109c0,0,183.297-10.917,213.707-37.969c0,0,87.382-37.464,68.603-167.464c0,0,3.139-110.701-113.272-104.762
			c0,0,71.822-57.442,56.43-129.376c0,0-0.5-90.836-87.924-81.5l-203.459,21.727l2.258,38.711l55.884-1.64L311.548,756.335z"/>
		<path stroke="#FFFFFF" stroke-width="8.1423" stroke-miterlimit="10" d="M344.94,504.828l-20.326-183.936
			c0,0,106.206-43.802,108.212,72.842C432.826,393.734,454.868,497.418,344.94,504.828z"/>
		<path stroke="#FFFFFF" stroke-width="8.1423" stroke-miterlimit="10" d="M337.363,539.441c0,0,122.477-39.047,134.146,78.729
			c0,0,38.816,117.041-105.956,130.337L337.363,539.441z"/>
	</g>
</g>
</svg>
