<?xml version="1.0" encoding="utf-8"?>
<!-- Generator: Adobe Illustrator 17.0.2, SVG Export Plug-In . SVG Version: 6.00 Build 0)  -->
<!DOCTYPE svg PUBLIC "-//W3C//DTD SVG 1.1//EN" "http://www.w3.org/Graphics/SVG/1.1/DTD/svg11.dtd">
<svg version="1.1" id="Layer_1" xmlns="http://www.w3.org/2000/svg" xmlns:xlink="http://www.w3.org/1999/xlink" x="0px" y="0px"
	 width="1024px" height="1024px" viewBox="0 0 1024 1024" enable-background="new 0 0 1024 1024" xml:space="preserve">
<g>
	
		<image overflow="visible" opacity="0.75" width="4568" height="4601" xlink:href="FBAD1EE484D47121.png"  transform="matrix(0.24 0 0 0.24 -36.1256 -40.3131)">
	</image>
	<g>
		<path fill="#286BAA" d="M1001.875,994.003c0,6.393-5.141,11.575-11.483,11.575H33.483c-6.342,0-11.483-5.182-11.483-11.575V29.388
			c0-6.393,5.141-11.575,11.483-11.575h956.909c6.342,0,11.483,5.182,11.483,11.575V994.003z"/>
		<path fill="none" stroke="#000000" stroke-width="0.9608" stroke-miterlimit="10" d="M1001.875,994.003
			c0,6.393-5.141,11.575-11.483,11.575H33.483c-6.342,0-11.483-5.182-11.483-11.575V29.388c0-6.393,5.141-11.575,11.483-11.575
			h956.909c6.342,0,11.483,5.182,11.483,11.575V994.003z"/>
	</g>
</g>
<line fill="none" stroke="#FFFEFE" stroke-width="24" stroke-miterlimit="10" x1="203.695" y1="322.627" x2="203.695" y2="753.136"/>
<path fill="none" stroke="#FFFEFE" stroke-width="24" stroke-miterlimit="10" d="M203.695,322.627h-66.102v-18.644
	c0,0,20.339-50.847,55.932-50.847h652.542c0,0,32.203,13.559,42.373,42.373v27.119h-74.576H203.695z"/>
<path fill="none" stroke="#FFFEFE" stroke-width="24" stroke-miterlimit="10" d="M137.593,322.627v430.509h750.847v20.339
	c0,0-18.644,40.678-35.593,42.373H179.966c0,0-32.203-6.78-42.373-44.068V322.627z"/>
<polyline fill="none" stroke="#FFFEFE" stroke-width="24" stroke-miterlimit="10" points="822.339,753.136 888.441,753.136 
	888.441,322.627 813.864,322.627 "/>
<line fill="none" stroke="#FFFEFE" stroke-width="24" stroke-miterlimit="10" x1="820.644" y1="322.627" x2="820.644" y2="753.136"/>
<rect x="285.051" y="412.458" fill="none" width="472.881" height="271.186"/>
<text transform="matrix(1 0 0 1 285.0511 463.4949)"><tspan x="0" y="0" fill="#FFFFFF" font-family="'Chalkboard'" font-size="72">abc123abc123</tspan><tspan x="0" y="86.399" fill="#FFFFFF" font-family="'Chalkboard'" font-size="72">abc123abc123</tspan><tspan x="0" y="172.8" fill="#FFFFFF" font-family="'Chalkboard'" font-size="72">abc123abc123</tspan></text>
<g>
	<path fill="#FFFFFF" d="M758.492,668.027l-31.149-26.644c0,0,3.467,14.067-10.939,15.453l31.903,24.064
		C748.308,680.901,758.32,677.453,758.492,668.027z"/>
	<path fill="#FFFFFF" d="M727.344,641.383c0,0-20.678-3.679-10.939,15.453c0,0,7.365-0.333,9.177-4.55
		C725.582,652.286,728.085,647.243,727.344,641.383z"/>
</g>
<g>
	<path fill="#FFFFFF" d="M728.89,731.978l-49.641-0.863c0,0,14.087,10.464,1.701,22.869l48.356-2.128
		C729.306,751.856,735.998,740.915,728.89,731.978z"/>
	<path fill="#FFFFFF" d="M679.249,731.114c0,0-22.151,12.511,1.701,22.869c0,0,6.622-5.991,5.062-11.327
		C686.012,742.656,684.461,736.016,679.249,731.114z"/>
</g>
<rect x="285.051" y="715.976" fill="none" stroke="#FFFFFF" stroke-width="6" stroke-miterlimit="10" width="117.012" height="30.276"/>
</svg>
