<?xml version="1.0" encoding="utf-8"?>
<!-- Generator: Adobe Illustrator 17.0.2, SVG Export Plug-In . SVG Version: 6.00 Build 0)  -->
<!DOCTYPE svg PUBLIC "-//W3C//DTD SVG 1.1//EN" "http://www.w3.org/Graphics/SVG/1.1/DTD/svg11.dtd">
<svg version="1.1" id="Layer_1" xmlns="http://www.w3.org/2000/svg" xmlns:xlink="http://www.w3.org/1999/xlink" x="0px" y="0px"
	 width="1024px" height="1024px" viewBox="0 0 1024 1024" enable-background="new 0 0 1024 1024" xml:space="preserve">
<g>
	
		<image overflow="visible" opacity="0.75" enable-background="new    " width="1169" height="1195" xlink:href="7B139D316CB3A888.png"  transform="matrix(1.0113 0 0 0.9992 -45.5 -135.2843)">
	</image>
	<g>
		
			<radialGradient id="SVGID_1_" cx="-6706.499" cy="2223.824" r="415.2759" gradientTransform="matrix(0.6306 1.2443 -4.9964 3.2868 15885.6768 1496.9946)" gradientUnits="userSpaceOnUse">
			<stop  offset="0" style="stop-color:#FFFFFF"/>
			<stop  offset="1" style="stop-color:#286BA9"/>
		</radialGradient>
		<polygon fill="url(#SVGID_1_)" points="-8.548,-98.69 1099.267,1021.526 -8.543,1021.526 		"/>
	</g>
</g>
<g>
	
		<image overflow="visible" opacity="0.75" enable-background="new    " width="1012" height="1039" xlink:href="7B139D316CB3A88B.png"  transform="matrix(0.999 0 0 0.999 45.4578 -31.529)">
	</image>
	<g>
		
			<radialGradient id="SVGID_2_" cx="-7356.7725" cy="2485.7576" r="415.2709" gradientTransform="matrix(1.0518 0.5542 3.6436 -5.7592 -769.1622 18879.9512)" gradientUnits="userSpaceOnUse">
			<stop  offset="0" style="stop-color:#FFFFFF"/>
			<stop  offset="1" style="stop-color:#286BA9"/>
		</radialGradient>
		<polygon fill="url(#SVGID_2_)" points="76.644,0 1023.561,973.668 1023.561,0 		"/>
	</g>
</g>
<g opacity="0.9">
	<path fill="#286BAA" d="M41.278-41.077c0.542,0.039,0.893,0.08,1.05,0.12c0.846,0.047,1.563,0.098,2.217,0.155
		C44.228-40.893,43.236-40.991,41.278-41.077z"/>
	<path fill="none" stroke="#000000" stroke-width="1.2827" stroke-miterlimit="10" d="M41.278-41.077
		c0.542,0.039,0.893,0.08,1.05,0.12c0.846,0.047,1.563,0.098,2.217,0.155C44.228-40.893,43.236-40.991,41.278-41.077z"/>
</g>
<g opacity="0.9">
	<path fill="#286BAA" d="M215.952-43.135c1.761,0.065,3.461,0.133,5.152,0.206c0.277,0.013,0.558,0.026,0.834,0.039
		c1.218-0.055,2.229-0.122,3.139-0.201c-4.066-0.154-9.084-0.289-15.454-0.4C213.126-43.378,215.15-43.255,215.952-43.135z"/>
	<path fill="none" stroke="#000000" stroke-width="1.2827" stroke-miterlimit="10" d="M215.952-43.135
		c1.761,0.065,3.461,0.133,5.152,0.206c0.277,0.013,0.558,0.026,0.834,0.039c1.218-0.055,2.229-0.122,3.139-0.201
		c-4.066-0.154-9.084-0.289-15.454-0.4C213.126-43.378,215.15-43.255,215.952-43.135z"/>
</g>
<path fill="none" stroke="#000000" stroke-miterlimit="10" d="M34.832,1064.726c2.228,2.555,4.28,5.273,6.2,8.131
	c0.112,0.167,0.189,0.333,0.268,0.499c3.154,1.139,6.441,2.123,9.856,2.949C45.698,1072.462,40.268,1068.583,34.832,1064.726z"/>
<path fill="none" stroke="#000000" stroke-miterlimit="10" d="M21.503,1059.675c-1.467-0.391-2.929-0.798-4.389-1.218
	c3.203,3.224,6.779,6.053,10.72,8.482c-1.533-1.6-3.164-3.103-4.925-4.458C21.924,1061.721,21.513,1060.691,21.503,1059.675z"/>
<path fill="none" stroke="#000000" stroke-miterlimit="10" d="M60.775,1074.1c0.795,0.792,1.583,1.59,2.381,2.379
	c1.224,0.838,2.45,1.671,3.68,2.498c4.431,0.483,9.001,0.778,13.687,0.901c-3.853-1.676-7.695-3.378-11.534-5.088
	C66.172,1074.761,63.414,1074.558,60.775,1074.1z"/>
<path fill="none" stroke="#000000" stroke-miterlimit="10" d="M43.936,1037.343c-0.363-0.042-0.725-0.088-1.088-0.128
	c-1.335,0.013-2.669,0.022-4.004,0.035c0.857,0.192,1.711,0.401,2.565,0.61C42.251,1037.682,43.093,1037.508,43.936,1037.343z"/>
<path fill="none" stroke="#000000" stroke-miterlimit="10" d="M41.252,1044.708c-1.352,0.299-2.698,0.62-4.041,0.953
	c4.044,1.341,8.076,2.721,12.096,4.138c1.233-0.562,2.484-1.079,3.757-1.54C49.17,1046.943,45.23,1045.741,41.252,1044.708z"/>
<path fill="none" stroke="#000000" stroke-miterlimit="10" d="M132.662,1056.608c3.809-0.02,7.617-0.074,11.426-0.148
	c-7.658-1.536-15.301-3.236-22.941-5.002c-0.248,0.225-0.538,0.402-0.845,0.552C124.489,1053.363,128.618,1054.893,132.662,1056.608
	z"/>
<path fill="none" stroke="#000000" stroke-miterlimit="10" d="M95.612,1052.923c-2.018-0.327-4.074-0.622-6.155-0.871
	c1.48,0.325,2.934,0.655,4.355,0.979c3.253,0.742,6.525,1.585,9.808,2.458c2.171,0.213,4.314,0.372,6.399,0.5
	C105.247,1054.733,100.43,1053.704,95.612,1052.923z"/>
<path fill="none" stroke="#000000" stroke-miterlimit="10" d="M110.69,1064.258c-1.648-0.437-3.291-0.875-4.933-1.309
	c1.018,0.447,2.037,0.889,3.057,1.331c0.344,0.029,0.687,0.048,1.031,0.078C110.126,1064.324,110.408,1064.291,110.69,1064.258z"/>
<path fill="none" stroke="#000000" stroke-miterlimit="10" d="M149.405,1066.597c0.033,0.3,0.014,0.602-0.028,0.901
	c9.217-0.506,18.433-1.017,27.653-1.432c1.968-0.513,3.907-1.054,5.86-1.583C171.68,1064.668,160.53,1065.489,149.405,1066.597z"/>
<path fill="none" stroke="#000000" stroke-miterlimit="10" d="M73.103,1055.885c-2.64-0.287-5.273-0.432-7.866-0.388
	c7.538,2.708,15.086,5.385,22.693,7.882c0.885,0.01,1.771,0.025,2.656,0.04C84.784,1060.842,78.967,1058.306,73.103,1055.885z"/>
<path fill="none" stroke="#000000" stroke-miterlimit="10" d="M58.972,1061.302c2.783,0.63,5.559,1.289,8.327,1.979
	c-3.617-1.291-7.234-2.585-10.85-3.877C57.284,1060.043,58.124,1060.678,58.972,1061.302z"/>
<path fill="none" stroke="#000000" stroke-miterlimit="10" d="M90.612,1076.441c-1.778,0.003-2.817-1.119-3.139-2.447
	c-1.206,0.015-2.411,0.01-3.617-0.001c2.817,1.225,5.632,2.457,8.461,3.652c1.121,0.474,1.641,1.274,1.746,2.14
	c4.744-0.18,9.582-0.522,14.476-0.982c-3.23-0.815-6.462-1.627-9.693-2.439C96.101,1076.408,93.357,1076.436,90.612,1076.441z"/>
<path fill="none" stroke="#000000" stroke-miterlimit="10" d="M119.215,1042.383c-0.767-0.073-1.534-0.141-2.302-0.208
	c1.018,0.183,2.035,0.366,3.053,0.549C119.715,1042.611,119.464,1042.5,119.215,1042.383z"/>
<path fill="none" stroke="#000000" stroke-miterlimit="10" d="M117.397,1030.54c-1.2,0.043-2.405,0.192-3.622,0.45
	c0.3,0.243,0.612,0.476,0.918,0.714C115.593,1031.312,116.494,1030.923,117.397,1030.54z"/>
<path fill="none" stroke="#000000" stroke-miterlimit="10" d="M159.608,1041.943c-1.562-0.062-2.653-1.133-3.097-2.402
	c-3.194-0.154-6.4-0.207-9.61-0.202c3.939,2.117,8.106,3.522,12.403,4.53c1.165-0.514,2.322-1.048,3.47-1.605
	C161.734,1042.099,160.681,1041.986,159.608,1041.943z"/>
<path fill="none" stroke="#000000" stroke-miterlimit="10" d="M174.006,1044.822c-0.178,0.052-0.349,0.12-0.526,0.175
	c1.58,0.102,3.157,0.231,4.731,0.374c-0.726-0.698-1.5-1.332-2.327-1.892C175.486,1044.083,174.866,1044.573,174.006,1044.822z"/>
<path fill="none" stroke="#000000" stroke-miterlimit="10" d="M214.715,1046.71c0.568,0.099,1.136,0.193,1.705,0.286
	c0.201-0.892,0.695-1.739,1.421-2.299c-0.795-0.224-1.598-0.428-2.404-0.623c0.123,0.706,0.014,1.464-0.414,2.196
	C214.948,1046.397,214.839,1046.548,214.715,1046.71z"/>
<path fill="none" stroke="#000000" stroke-miterlimit="10" d="M187.697,1046.528c4.414,0.696,8.773,1.617,13.04,2.851
	c1.689-0.023,3.378-0.052,5.067-0.093c-0.031-0.375-0.023-0.755,0.044-1.121c0.133-0.726,0.438-1.351,0.817-1.936
	c-7.776-2.596-15.728-4.576-23.781-6.024C184.734,1042.037,186.302,1044.192,187.697,1046.528z"/>
<polyline fill="none" stroke="#000000" stroke-width="15" stroke-miterlimit="10" points="943.862,0.746 943.862,506.456 
	652.398,506.456 652.398,128.527 895.24,128.527 895.24,731.588 763.844,731.588 763.844,1023.254 "/>
<polyline fill="none" stroke="#000000" stroke-width="8" stroke-miterlimit="10" points="806.784,0.986 806.784,259.451 
	512.755,259.451 512.755,149.769 166.133,149.769 166.133,401.794 596.763,401.794 596.763,785.832 881.793,785.832 
	881.793,887.843 523.963,887.843 523.963,1021.522 "/>
<g>
	<g opacity="0.7">
		
			<image overflow="visible" opacity="0.75" enable-background="new    " width="554" height="663" xlink:href="7B139D316CB3A886.png"  transform="matrix(1.5033 0 0 1.5033 -299.0193 402.8374)">
		</image>
		<g>
			<path fill="#FFFFFF" d="M483.872,547.973c-5.262-12.026,0-19.543,0-19.543c-1.879-3.758-6.013-3.382-6.013-3.382
				c-4.134-2.631-7.517,0.376-7.517,0.376h-3.758c-11.275,7.517-14.657,4.886-14.657,4.886l-11.651,5.262
				c-4.886,0.752-3.382-4.51-3.382-4.51l3.382-4.134c0-14.657-6.389-49.609-6.389-49.609l-9.396-15.409
				c-4.134-9.772-9.02-8.644-9.02-8.644c-3.007-1.128-11.651,5.637-11.651,5.637v3.382c-1.879-2.255-7.141,6.765-7.141,6.765
				l-4.886,7.892h-3.007c-0.376,3.007-2.255,4.886-2.255,4.886c-2.631,2.255-7.141,12.778-7.141,12.778l-11.275,11.275v3.382
				c0,2.255-10.523,11.651-10.523,11.651c-15.785,11.275-28.563,15.409-28.563,15.409c-10.523,3.758-17.288,15.409-17.288,15.409
				v8.644l-3.758,2.631c-5.262,0-10.899,9.396-10.899,9.396c-0.752,6.765-14.281,23.301-14.281,23.301
				c-3.758,4.134-3.758,16.161-3.758,16.161c-6.013-2.255-12.026,19.167-12.026,19.167c-2.255,6.013-26.684,24.429-26.684,24.429
				c-9.771,5.262-12.402,15.033-12.402,15.033c0.752,9.396,11.275,18.04,11.275,18.04s-3.382-3.007,1.503,0
				c4.886,3.007,7.141,7.141,7.141,7.141l-7.517,13.154l-3.007,18.416c-4.134,4.51-8.644,30.066-8.644,30.066
				c-11.275,27.435-10.523,20.295-10.523,20.295l-3.758,4.134c-0.376,4.886-6.765,12.402-6.765,12.402
				c-7.141,5.262-18.791,27.06-18.791,27.06c-5.262,7.892-10.523,36.831-10.523,36.831c-3.007,0.752-7.141,20.67-7.141,20.67
				c-2.631,0.376-26.684,32.321-26.684,32.321c-9.396,0.376-26.308,21.798-26.308,21.798c-4.886-3.382-10.523,5.637-10.523,5.637
				c-1.503,6.389-6.765,11.651-6.765,11.651c-7.892,3.007-18.416,26.308-18.416,26.308c-2.255,1.503-12.026,9.396-12.026,9.396
				c6.013,7.892-32.321,37.958-32.321,37.958c-2.631-0.752-7.141,3.383-7.141,3.383c-2.255,13.53-25.18,42.468-25.18,42.468
				c0-1.879-5.262,2.255-5.262,2.255c-4.134,10.523-10.147,9.396-10.147,9.396l-16.161,18.791
				c-2.255,1.503-15.409,19.919-15.409,19.919c-3.758,7.517-15.033,20.295-15.033,20.295c-4.51,22.174-12.778,23.677-12.778,23.677
				c-0.752,5.637-9.396,18.416-9.396,18.416c-5.262,4.134-10.899,19.543-10.899,19.543c-1.503,0-6.013,11.275-6.013,11.275
				c-3.758,10.147-12.026,28.939-12.026,28.939l-4.134,4.134c-1.879,0-5.262,13.154-5.262,13.154c-1.503-0.752-9.02,9.02-9.02,9.02
				s0,0-3.382,0s-23.677,2.631-23.677,2.631h-17.664c-3.758-4.134-16.536-2.631-16.536-2.631c-0.752,0.376-5.262,0-5.262,0h-5.262
				c-1.879-4.886-8.644-7.141-11.651-9.02s-11.651-9.396-11.651-9.396l-16.161-6.013c0,0-0.752-6.389-2.631-7.141
				s-5.262,2.13-5.262,2.13h-4.886v58.378c0,3.552,0.132,6.977,0.359,10.311c0.595-0.125,1.23-0.174,1.917-0.078
				c9.695,1.348,19.337,2.961,28.946,4.743c2.733-0.601,5.538-1.454,8.536-2.256c7.919-2.123,15.466-2.574,23.399-0.23
				c2.796,0.827,4.354,3.976,3.476,6.578c2.162,1.496,4.345,3.032,6.548,4.579c5.555,1.23,11.108,2.471,16.658,3.721
				c4.584,0.753,9.157,1.577,13.74,2.41c4.982,0.014,9.962,0.044,14.944,0.107c12.778,0.162,25.535,0.894,38.288,1.643
				c-2.058-2.846-0.25-6.499,2.859-7.763c9.94-4.046,20.546-5.794,30.699-1.484c1.072,0.455,2.112,0.961,3.128,1.502
				c3.772-1.141,7.587-2.083,11.466-2.708c15.558-2.5,29.032,0.839,40.953,9.669c5.636,0.422,11.263,0.98,16.866,1.711
				c3.21-0.642,6.421-1.284,9.63-1.926c3.198-0.64,6.73,1.434,9.808,2.19c4.057,0.997,8.146,1.835,12.265,2.536
				c16.648,2.826,34.044,4.242,49.486,11.571c1.515,0.72,2.344,2.375,2.456,4.08c1.712-0.616,3.42-1.252,5.114-1.93
				c4.435-1.774,8.871-3.843,13.33-5.979c0.949-0.711,1.918-1.392,2.888-2.073c-1.266-0.14-2.547-0.287-3.803-0.418
				c-6.377-0.658-6.681-10.158,0-10.158c7.677,0,15.359-0.003,23.037,0.093c17.73-7.15,36.738-9.035,55.882-9.112
				c0.377-0.001,0.728,0.039,1.061,0.101c1.66-0.732,2.544-1.132,2.544-1.132l3.007-4.886c2.631-4.886,19.167-21.046,19.167-21.046
				c10.147-9.396,7.141-23.301,7.141-23.301c27.435-19.543,23.677-39.086,23.677-39.086c5.637,0,11.651-5.261,11.651-5.261
				c0-1.879,10.523-10.899,10.523-10.899c4.51-6.765,7.141-7.141,7.141-7.141c5.262-0.376,6.389,4.886,6.389,4.886
				c0.752,3.382,3.382,11.275,3.382,11.275l1.879,7.141c0.752,17.664,6.013,30.818,6.013,30.818l4.886,25.932
				c1.503,7.892,1.127,31.569,1.127,31.569h64.642l-6.389-59.005c-3.382-29.69-1.503-67.649-1.503-67.649l3.382-61.636
				c1.127,0,28.939-66.897,28.939-66.897c5.262-15.409,24.053-46.603,24.053-46.603c0-1.879,7.892-48.482,7.892-48.482
				c-4.886-12.026,0.376-15.785,0.376-15.785c11.651-5.262,9.396-9.02,9.396-9.02v-30.818c10.523-19.167-3.382-39.086-3.382-39.086
				l3.007-5.637l1.127-3.382c4.51-6.013,2.255-9.02,2.255-9.02l3.007-20.671l9.771-18.416c2.631-3.758,0.752-11.275,0.752-11.275
				c-3.758-6.389-0.752-27.811-0.752-27.811c1.503-6.013-3.382-7.892-3.382-7.892c1.879-17.664-3.382-38.71-3.382-38.71
				c-8.268-25.932,1.128-46.227,1.128-46.227c-3.007-6.765,4.51-30.818,4.51-30.818l1.127-25.556
				c4.134-36.455,27.811-59.005,27.811-59.005C487.63,556.617,483.872,547.973,483.872,547.973z"/>
			<path fill="none" stroke="#000000" stroke-width="7.5165" stroke-miterlimit="10" d="M483.872,547.973
				c-5.262-12.026,0-19.543,0-19.543c-1.879-3.758-6.013-3.382-6.013-3.382c-4.134-2.631-7.517,0.376-7.517,0.376h-3.758
				c-11.275,7.517-14.657,4.886-14.657,4.886l-11.651,5.262c-4.886,0.752-3.382-4.51-3.382-4.51l3.382-4.134
				c0-14.657-6.389-49.609-6.389-49.609l-9.396-15.409c-4.134-9.772-9.02-8.644-9.02-8.644c-3.007-1.128-11.651,5.637-11.651,5.637
				v3.382c-1.879-2.255-7.141,6.765-7.141,6.765l-4.886,7.892h-3.007c-0.376,3.007-2.255,4.886-2.255,4.886
				c-2.631,2.255-7.141,12.778-7.141,12.778l-11.275,11.275v3.382c0,2.255-10.523,11.651-10.523,11.651
				c-15.785,11.275-28.563,15.409-28.563,15.409c-10.523,3.758-17.288,15.409-17.288,15.409v8.644l-3.758,2.631
				c-5.262,0-10.899,9.396-10.899,9.396c-0.752,6.765-14.281,23.301-14.281,23.301c-3.758,4.134-3.758,16.161-3.758,16.161
				c-6.013-2.255-12.026,19.167-12.026,19.167c-2.255,6.013-26.684,24.429-26.684,24.429c-9.771,5.262-12.402,15.033-12.402,15.033
				c0.752,9.396,11.275,18.04,11.275,18.04s-3.382-3.007,1.503,0c4.886,3.007,7.141,7.141,7.141,7.141l-7.517,13.154l-3.007,18.416
				c-4.134,4.51-8.644,30.066-8.644,30.066c-11.275,27.435-10.523,20.295-10.523,20.295l-3.758,4.134
				c-0.376,4.886-6.765,12.402-6.765,12.402c-7.141,5.262-18.791,27.06-18.791,27.06c-5.262,7.892-10.523,36.831-10.523,36.831
				c-3.007,0.752-7.141,20.67-7.141,20.67c-2.631,0.376-26.684,32.321-26.684,32.321c-9.396,0.376-26.308,21.798-26.308,21.798
				c-4.886-3.382-10.523,5.637-10.523,5.637c-1.503,6.389-6.765,11.651-6.765,11.651c-7.892,3.007-18.416,26.308-18.416,26.308
				c-2.255,1.503-12.026,9.396-12.026,9.396c6.013,7.892-32.321,37.958-32.321,37.958c-2.631-0.752-7.141,3.383-7.141,3.383
				c-2.255,13.53-25.18,42.468-25.18,42.468c0-1.879-5.262,2.255-5.262,2.255c-4.134,10.523-10.147,9.396-10.147,9.396
				l-16.161,18.791c-2.255,1.503-15.409,19.919-15.409,19.919c-3.758,7.517-15.033,20.295-15.033,20.295
				c-4.51,22.174-12.778,23.677-12.778,23.677c-0.752,5.637-9.396,18.416-9.396,18.416c-5.262,4.134-10.899,19.543-10.899,19.543
				c-1.503,0-6.013,11.275-6.013,11.275c-3.758,10.147-12.026,28.939-12.026,28.939l-4.134,4.134
				c-1.879,0-5.262,13.154-5.262,13.154c-1.503-0.752-9.02,9.02-9.02,9.02s0,0-3.382,0s-23.677,2.631-23.677,2.631h-17.664
				c-3.758-4.134-16.536-2.631-16.536-2.631c-0.752,0.376-5.262,0-5.262,0h-5.262c-1.879-4.886-8.644-7.141-11.651-9.02
				s-11.651-9.396-11.651-9.396l-16.161-6.013c0,0-0.752-6.389-2.631-7.141s-5.262,2.13-5.262,2.13h-4.886v58.378
				c0,3.552,0.132,6.977,0.359,10.311c0.595-0.125,1.23-0.174,1.917-0.078c9.695,1.348,19.337,2.961,28.946,4.743
				c2.733-0.601,5.538-1.454,8.536-2.256c7.919-2.123,15.466-2.574,23.399-0.23c2.796,0.827,4.354,3.976,3.476,6.578
				c2.162,1.496,4.345,3.032,6.548,4.579c5.555,1.23,11.108,2.471,16.658,3.721c4.584,0.753,9.157,1.577,13.74,2.41
				c4.982,0.014,9.962,0.044,14.944,0.107c12.778,0.162,25.535,0.894,38.288,1.643c-2.058-2.846-0.25-6.499,2.859-7.763
				c9.94-4.046,20.546-5.794,30.699-1.484c1.072,0.455,2.112,0.961,3.128,1.502c3.772-1.141,7.587-2.083,11.466-2.708
				c15.558-2.5,29.032,0.839,40.953,9.669c5.636,0.422,11.263,0.98,16.866,1.711c3.21-0.642,6.421-1.284,9.63-1.926
				c3.198-0.64,6.73,1.434,9.808,2.19c4.057,0.997,8.146,1.835,12.265,2.536c16.648,2.826,34.044,4.242,49.486,11.571
				c1.515,0.72,2.344,2.375,2.456,4.08c1.712-0.616,3.42-1.252,5.114-1.93c4.435-1.774,8.871-3.843,13.33-5.979
				c0.949-0.711,1.918-1.392,2.888-2.073c-1.266-0.14-2.547-0.287-3.803-0.418c-6.377-0.658-6.681-10.158,0-10.158
				c7.677,0,15.359-0.003,23.037,0.093c17.73-7.15,36.738-9.035,55.882-9.112c0.377-0.001,0.728,0.039,1.061,0.101
				c1.66-0.732,2.544-1.132,2.544-1.132l3.007-4.886c2.631-4.886,19.167-21.046,19.167-21.046
				c10.147-9.396,7.141-23.301,7.141-23.301c27.435-19.543,23.677-39.086,23.677-39.086c5.637,0,11.651-5.261,11.651-5.261
				c0-1.879,10.523-10.899,10.523-10.899c4.51-6.765,7.141-7.141,7.141-7.141c5.262-0.376,6.389,4.886,6.389,4.886
				c0.752,3.382,3.382,11.275,3.382,11.275l1.879,7.141c0.752,17.664,6.013,30.818,6.013,30.818l4.886,25.932
				c1.503,7.892,1.127,31.569,1.127,31.569h64.642l-6.389-59.005c-3.382-29.69-1.503-67.649-1.503-67.649l3.382-61.636
				c1.127,0,28.939-66.897,28.939-66.897c5.262-15.409,24.053-46.603,24.053-46.603c0-1.879,7.892-48.482,7.892-48.482
				c-4.886-12.026,0.376-15.785,0.376-15.785c11.651-5.262,9.396-9.02,9.396-9.02v-30.818c10.523-19.167-3.382-39.086-3.382-39.086
				l3.007-5.637l1.127-3.382c4.51-6.013,2.255-9.02,2.255-9.02l3.007-20.671l9.771-18.416c2.631-3.758,0.752-11.275,0.752-11.275
				c-3.758-6.389-0.752-27.811-0.752-27.811c1.503-6.013-3.382-7.892-3.382-7.892c1.879-17.664-3.382-38.71-3.382-38.71
				c-8.268-25.932,1.128-46.227,1.128-46.227c-3.007-6.765,4.51-30.818,4.51-30.818l1.127-25.556
				c4.134-36.455,27.811-59.005,27.811-59.005C487.63,556.617,483.872,547.973,483.872,547.973z"/>
		</g>
	</g>
	<path fill="#101010" stroke="#000000" stroke-width="1.5033" stroke-miterlimit="10" d="M345.568,540.456c0,0-3.758,6.013,0,12.026
		C345.568,552.483,367.366,533.691,345.568,540.456z"/>
	<path fill="#101010" stroke="#000000" stroke-width="1.5033" stroke-miterlimit="10" d="M435.264,515.901
		c0,0-4.51,4.51-4.51,11.024c0,0-5.011,5.011-3.007,15.534c0,0,19.543,11.526,28.563,10.023c0,0,19.543-6.264,21.547-27.435
		l-11.275,0.376c0,0-6.846,5.371-10.752,5.129l-3.906-0.244c0,0-9.275,5.272-14.973,3.951L435.264,515.901z"/>
	<path fill="#281F16" d="M269.121,668.923l-13.53-10.523l-17.539,10.523c0,0,16.036,18.04,31.069,10.523
		c15.033-7.517,33.073-13.53,33.073-21.046s-8.519-7.517-10.023-7.016c0,0-1.003,7.016-9.52,10.023
		C282.651,661.406,272.629,661.406,269.121,668.923z"/>
</g>
<line fill="none" stroke="#000000" stroke-width="4.198" stroke-miterlimit="10" x1="243.601" y1="178.956" x2="243.601" y2="0"/>
<ellipse opacity="0.8" fill="#286BA9" enable-background="new    " cx="609.431" cy="194.117" rx="26.3" ry="25.503"/>
<polyline fill="none" stroke="#000000" stroke-width="4.198" stroke-miterlimit="10" points="243.601,178.956 495.717,178.956 
	495.717,194.117 609.431,194.117 "/>
</svg>
