<?xml version="1.0" encoding="utf-8"?>
<!-- Generator: Adobe Illustrator 17.0.2, SVG Export Plug-In . SVG Version: 6.00 Build 0)  -->
<!DOCTYPE svg PUBLIC "-//W3C//DTD SVG 1.1//EN" "http://www.w3.org/Graphics/SVG/1.1/DTD/svg11.dtd">
<svg version="1.1" id="Layer_1" xmlns="http://www.w3.org/2000/svg" xmlns:xlink="http://www.w3.org/1999/xlink" x="0px" y="0px"
	 width="1024px" height="1024px" viewBox="0 0 1024 1024" enable-background="new 0 0 1024 1024" xml:space="preserve">
<g>
	
		<image overflow="visible" opacity="0.75" enable-background="new    " width="1169" height="1195" xlink:href="7B139D316CB3A888.png"  transform="matrix(1.0113 0 0 0.9992 -45.5 -135.2843)">
	</image>
	<g>
		
			<radialGradient id="SVGID_1_" cx="-6706.499" cy="2223.824" r="415.2759" gradientTransform="matrix(0.6306 1.2443 -4.9964 3.2868 15885.6768 1496.9946)" gradientUnits="userSpaceOnUse">
			<stop  offset="0" style="stop-color:#FFFFFF"/>
			<stop  offset="1" style="stop-color:#286BA9"/>
		</radialGradient>
		<polygon fill="url(#SVGID_1_)" points="-8.548,-98.69 1099.267,1021.526 -8.543,1021.526 		"/>
	</g>
</g>
<g>
	
		<image overflow="visible" opacity="0.75" enable-background="new    " width="1012" height="1039" xlink:href="7B139D316CB3A88B.png"  transform="matrix(0.999 0 0 0.999 45.4578 -31.529)">
	</image>
	<g>
		
			<radialGradient id="SVGID_2_" cx="-7356.7725" cy="2485.7576" r="415.2709" gradientTransform="matrix(1.0518 0.5542 3.6436 -5.7592 -769.1622 18879.9512)" gradientUnits="userSpaceOnUse">
			<stop  offset="0" style="stop-color:#FFFFFF"/>
			<stop  offset="1" style="stop-color:#286BA9"/>
		</radialGradient>
		<polygon fill="url(#SVGID_2_)" points="76.644,0 1023.561,973.668 1023.561,0 		"/>
	</g>
</g>
<g opacity="0.9">
	<path fill="#286BAA" d="M41.278-41.077c0.542,0.039,0.893,0.08,1.05,0.12c0.846,0.047,1.563,0.098,2.217,0.155
		C44.228-40.893,43.236-40.991,41.278-41.077z"/>
	<path fill="none" stroke="#000000" stroke-width="1.2827" stroke-miterlimit="10" d="M41.278-41.077
		c0.542,0.039,0.893,0.08,1.05,0.12c0.846,0.047,1.563,0.098,2.217,0.155C44.228-40.893,43.236-40.991,41.278-41.077z"/>
</g>
<g opacity="0.9">
	<path fill="#286BAA" d="M215.952-43.135c1.761,0.065,3.461,0.133,5.152,0.206c0.277,0.013,0.558,0.026,0.834,0.039
		c1.218-0.055,2.229-0.122,3.139-0.201c-4.066-0.154-9.084-0.289-15.454-0.4C213.126-43.378,215.15-43.255,215.952-43.135z"/>
	<path fill="none" stroke="#000000" stroke-width="1.2827" stroke-miterlimit="10" d="M215.952-43.135
		c1.761,0.065,3.461,0.133,5.152,0.206c0.277,0.013,0.558,0.026,0.834,0.039c1.218-0.055,2.229-0.122,3.139-0.201
		c-4.066-0.154-9.084-0.289-15.454-0.4C213.126-43.378,215.15-43.255,215.952-43.135z"/>
</g>
<polyline fill="none" stroke="#000000" stroke-width="15" stroke-miterlimit="10" points="943.862,0.746 943.862,506.456 
	652.398,506.456 652.398,128.527 895.24,128.527 895.24,731.588 763.844,731.588 763.844,1023.254 "/>
<line fill="none" stroke="#000000" stroke-width="4.198" stroke-miterlimit="10" x1="243.601" y1="178.956" x2="243.601" y2="0"/>
<ellipse opacity="0.8" fill="#286BA9" enable-background="new    " cx="609.431" cy="194.117" rx="26.3" ry="25.503"/>
<polyline fill="none" stroke="#000000" stroke-width="4.198" stroke-miterlimit="10" points="243.601,178.956 495.717,178.956 
	495.717,194.117 609.431,194.117 "/>
<path fill="#286BA9" enable-background="new    " d="M41.278,633.105c0,0,96.667-44.708,114.727-68.053
	c0,0,67.833-44.488,88.536-46.69c0,0,23.345-7.929,29.071-7.929c0,0,49.774-64.75,59.024-66.512c0,0,40.524-30.393,52.417-33.036
	l31.714,2.202c0,0,33.476-18.059,40.964-29.512c0,0,40.524-34.798,44.928-40.964l19.381-23.345c0,0,8.369-14.976,20.702-14.536
	c0,0,24.226,0,26.869,18.94v3.964c0,0,3.964,3.083,4.405,3.964v7.488c0,0,9.25,7.488,11.452,19.821c0,0,0.44,40.964,0,40.964
	s2.643,13.655,2.643,13.655l-7.048-3.083c0,0-14.536,70.917-16.738,71.797c0,0-4.845,21.583-4.405,24.667l18.5-5.286
	c0,0,0-24.226-4.405-24.667c0,0,22.905,4.405,25.548,19.821h6.607c0,0,4.845-7.488-3.964-15.417c0,0,14.095-1.321,22.464,13.214
	c0,0,15.417,1.762,15.857,11.893c0,0,0.44,17.179,0,18.059c0,0-142.714,139.19-142.714,144.916c0,0,24.226-16.298,27.309-15.857
	c0,0-35.678,96.905-36.559,125.535c0,0-7.929,51.536-8.809,68.274l-2.643,107.035c0,0-94.702-75.762-184.559-119.369
	c0,0-64.309,12.774-70.476,16.738l49.333-86.774c0,0-71.797-21.583-89.416,8.369c0,0,28.19-38.762,52.857-38.762
	c0,0-61.667-10.571-74,10.571c0,0,33.476-44.047,66.952-45.809l-5.286-24.667C222.517,674.73,55.61,691.909,41.278,633.105z"/>
</svg>
