<?xml version="1.0" encoding="utf-8"?>
<!-- Generator: Adobe Illustrator 17.0.2, SVG Export Plug-In . SVG Version: 6.00 Build 0)  -->
<!DOCTYPE svg PUBLIC "-//W3C//DTD SVG 1.1//EN" "http://www.w3.org/Graphics/SVG/1.1/DTD/svg11.dtd">
<svg version="1.1" id="Layer_1" xmlns="http://www.w3.org/2000/svg" xmlns:xlink="http://www.w3.org/1999/xlink" x="0px" y="0px"
	 width="1024px" height="1024px" viewBox="0 0 1024 1024" enable-background="new 0 0 1024 1024" xml:space="preserve">
<g>
	<path fill="#2A6CAC" d="M1015.559,1002.378c0,6.503-5.279,11.775-11.791,11.775H21.231c-6.512,0-11.791-5.271-11.791-11.775V21.113
		c0-6.503,5.279-11.775,11.791-11.775h982.538c6.512,0,11.791,5.271,11.791,11.775L1015.559,1002.378L1015.559,1002.378z"/>
	<path fill="none" stroke="#010101" stroke-width="0.9819" stroke-miterlimit="10" d="M1015.559,1002.378
		c0,6.503-5.279,11.775-11.791,11.775H21.231c-6.512,0-11.791-5.271-11.791-11.775V21.113c0-6.503,5.279-11.775,11.791-11.775
		h982.538c6.512,0,11.791,5.271,11.791,11.775L1015.559,1002.378L1015.559,1002.378z"/>
</g>
<g>
	
		<rect x="160.904" y="127.404" fill="none" stroke="#FFFFFF" stroke-width="24" stroke-miterlimit="10" width="276.272" height="794.304"/>
	
		<rect x="437.176" y="127.404" fill="none" stroke="#FFFFFF" stroke-width="24" stroke-miterlimit="10" width="267.476" height="794.304"/>
	<polygon fill="none" stroke="#FFFFFF" stroke-width="24" stroke-miterlimit="10" points="160.904,921.708 160.904,952.078 
		118.853,952.078 118.853,80.68 160.904,80.68 	"/>
	
		<rect x="160.904" y="80.68" fill="none" stroke="#FFFFFF" stroke-width="24" stroke-miterlimit="10" width="543.747" height="46.724"/>
	
		<rect x="704.651" y="80.68" fill="none" stroke="#FFFFFF" stroke-width="24" stroke-miterlimit="10" width="40.299" height="871.398"/>
</g>
<path fill="none" stroke="#FFFFFF" stroke-width="9" stroke-miterlimit="10" d="M932.397,523.21c-14.397,0-125,0-125,0s-13,2-13-13
	s0-69,0-69s-1-16,14-16s128,0,128,0s16,2,15,16l0.045,72C951.442,513.21,946.794,523.21,932.397,523.21z"/>
<polygon fill="none" stroke="#FFFFFF" stroke-width="9" stroke-miterlimit="10" points="805.771,495.383 831.771,454.383 
	860.771,495.383 "/>
<path fill="none" stroke="#FFFFFF" stroke-width="9" stroke-miterlimit="10" d="M872.913,502.172v-57c0,0,0-5,7-5h44c0,0,8,1,8,7v55
	c0,0-2,7-6,7h-48C877.913,509.172,872.913,512.172,872.913,502.172z"/>
<path fill="none" stroke="#FFFFFF" stroke-width="9" stroke-miterlimit="10" d="M932.397,548.298c-14.397,0-125,0-125,0s-13-2-13,13
	s0,69,0,69s-1,16,14,16s128,0,128,0s16-2,15-16l0.045-72C951.442,558.298,946.794,548.298,932.397,548.298z"/>
<polygon fill="none" stroke="#FFFFFF" stroke-width="9" stroke-miterlimit="10" points="805.771,576.125 831.771,617.125 
	860.771,576.125 "/>
<path fill="none" stroke="#FFFFFF" stroke-width="9" stroke-miterlimit="10" d="M872.913,569.336v57c0,0,0,5,7,5h44c0,0,8-1,8-7v-55
	c0,0-2-7-6-7h-48C877.913,562.336,872.913,559.336,872.913,569.336z"/>
</svg>
