<?xml version="1.0" encoding="utf-8"?>
<!-- Generator: Adobe Illustrator 17.0.2, SVG Export Plug-In . SVG Version: 6.00 Build 0)  -->
<!DOCTYPE svg PUBLIC "-//W3C//DTD SVG 1.1//EN" "http://www.w3.org/Graphics/SVG/1.1/DTD/svg11.dtd">
<svg version="1.1" id="Layer_1" xmlns="http://www.w3.org/2000/svg" xmlns:xlink="http://www.w3.org/1999/xlink" x="0px" y="0px"
	 width="1024px" height="1024px" viewBox="0 0 1024 1024" enable-background="new 0 0 1024 1024" xml:space="preserve">
<g>
	<polygon fill="none" stroke="#5E5D5E" stroke-width="15.1203" stroke-miterlimit="10" points="322.927,183.17 124.812,183.17 
		124.812,495.516 322.927,495.516 322.927,436.951 190.85,436.951 190.85,361.653 311.541,361.653 311.541,308.666 188.573,308.666 
		188.573,236.158 322.927,236.158 	"/>
	<polygon fill="none" stroke="#5E5D5E" stroke-width="11.3402" stroke-miterlimit="10" points="434.509,319.822 352.531,183.17 
		425.401,183.17 470.945,269.623 517.093,183.17 582.527,183.17 500.548,319.822 593.913,495.516 517.093,495.516 473.222,386.753 
		414.015,495.516 352.531,495.516 	"/>
	
		<rect x="612.13" y="183.17" fill="none" stroke="#5E5D5E" stroke-width="15.1203" stroke-miterlimit="10" width="59.207" height="312.345"/>
	<polygon fill="none" stroke="#5E5D5E" stroke-width="15.1203" stroke-miterlimit="10" points="773.811,233.369 700.941,233.369 
		700.941,183.17 908.165,183.17 908.165,233.369 833.018,233.369 833.018,495.516 773.811,495.516 	"/>
	<path fill="none" stroke="#5E5D5E" stroke-width="45.3856" stroke-miterlimit="10" d="M990.144,576.391
		c0,9.241-6.117,16.733-13.663,16.733H61.05c-7.546,0-13.663-7.492-13.663-16.733V107.873c0-9.241,6.117-16.733,13.663-16.733
		h915.43c7.546,0,13.663,7.492,13.663,16.733V576.391z"/>
	<g>
		<g>
			
				<line fill="none" stroke="#5E5D5E" stroke-width="45.3856" stroke-miterlimit="10" x1="719.204" y1="837.633" x2="47.387" y2="837.633"/>
			<g>
				<polygon fill="#5E5D5E" points="591.735,669.564 663.137,837.633 591.735,1005.701 990.144,837.633 				"/>
			</g>
		</g>
	</g>
</g>
</svg>
