<?xml version="1.0" encoding="utf-8"?>
<!-- Generator: Adobe Illustrator 17.0.2, SVG Export Plug-In . SVG Version: 6.00 Build 0)  -->
<!DOCTYPE svg PUBLIC "-//W3C//DTD SVG 1.1//EN" "http://www.w3.org/Graphics/SVG/1.1/DTD/svg11.dtd">
<svg version="1.1" id="Layer_1" xmlns="http://www.w3.org/2000/svg" xmlns:xlink="http://www.w3.org/1999/xlink" x="0px" y="0px"
	 width="6000px" height="4713px" viewBox="0 0 6000 4713" enable-background="new 0 0 6000 4713" xml:space="preserve">
<path fill="#256DAB" stroke="#000000" stroke-width="1.5513" stroke-miterlimit="10" d="M679.16,2376.617
	c0,0,680.919-314.921,808.129-479.363c0,0,477.813-313.37,623.639-328.883c0,0,164.442-55.848,204.777-55.848
	c0,0,350.603-456.093,415.76-468.504c0,0,285.447-214.084,369.219-232.7l223.393,15.514c0,0,235.804-127.209,288.55-207.879
	c0,0,285.447-245.111,316.473-288.549l136.518-164.442c0,0,58.951-105.491,145.826-102.388c0,0,170.647,0,189.263,133.415v27.924
	c0,0,27.924,21.719,31.026,27.924v52.745c0,0,65.156,52.746,80.669,139.621c0,0,3.103,288.549,0,288.549
	c-3.103,0,18.616,96.183,18.616,96.183l-49.643-21.719c0,0-102.389,499.531-117.902,505.736c0,0-34.13,152.031-31.027,173.75
	l130.312-37.232c0,0,0-170.647-31.026-173.75c0,0,161.339,31.027,179.955,139.621h46.541c0,0,34.129-52.745-27.924-108.594
	c0,0,99.286-9.308,158.237,93.08c0,0,108.594,12.411,111.696,83.772c0,0,3.103,121.004,0,127.21
	c0,0-1005.269,980.445-1005.269,1020.779c0,0,170.647-114.799,192.366-111.696c0,0-251.318,682.589-257.523,884.262
	c0,0-55.849,363.013-62.054,480.915l-18.617,753.95c0,0-667.075-533.661-1300.021-840.827c0,0-452.991,89.977-496.429,117.901
	l347.501-611.227c0,0-505.737-152.031-629.844,58.95c0,0,198.572-273.035,372.322-273.035c0,0-434.375-74.465-521.25,74.464
	c0,0,235.804-310.268,471.608-322.678l-37.232-173.75C1955.793,2669.822,780.116,2790.825,679.16,2376.617z"/>
</svg>
