<?xml version="1.0" encoding="utf-8"?>
<!-- Generator: Adobe Illustrator 17.0.2, SVG Export Plug-In . SVG Version: 6.00 Build 0)  -->
<!DOCTYPE svg PUBLIC "-//W3C//DTD SVG 1.1//EN" "http://www.w3.org/Graphics/SVG/1.1/DTD/svg11.dtd">
<svg version="1.1" id="Layer_1" xmlns="http://www.w3.org/2000/svg" xmlns:xlink="http://www.w3.org/1999/xlink" x="0px" y="0px"
	 width="1024px" height="1024px" viewBox="0 0 1024 1024" enable-background="new 0 0 1024 1024" xml:space="preserve">
<path fill="#5D5C5D" d="M512,608.272l16.63,13.994c0,0,1.87,19.242,17.301,35.911l272.805,294.691l33.688-62.972L577.086,590.923
	l-31.398-28.45C545.688,562.473,533.277,594.278,512,608.272z"/>
<path fill="#276CAA" d="M146.063,336.088c0,0-38.846-261.418,71.559-267.551c0,0,30.668-30.668,49.069-32.713
	c0,0,89.96,0,157.43,136.985c0,0,55.202,108.361,57.247,171.742c0,0,12.267,114.494,0,155.385l28.624,30.668
	c0,0,22.49-0.745,22.49,20.073l28.624,24.907l-28.344,59.836c0,0-19.175,9.678-19.95-14.856l-19.176-16.356
	c0,0-29.237-8.178-22.797-34.757l-16.05-18.773c0,0-49.069,94.422-100.183,78.065C354.606,628.742,231.933,632.263,146.063,336.088z
	"/>
<path fill="#5D5C5D" d="M470.838,569.45c0,0,23.934-43.309,39.153-38.846s24.534,3.344,22.49,20.073s-24.139,61.706-38.846,53.531
	C478.927,596.032,461.375,584.5,470.838,569.45z"/>
<ellipse transform="matrix(-0.9577 0.2876 -0.2876 -0.9577 659.1218 545.9299)" fill="#FDFDFE" cx="289.456" cy="321.385" rx="119.298" ry="264.912"/>
</svg>
