<?xml version="1.0" encoding="utf-8"?>
<!-- Generator: Adobe Illustrator 17.0.2, SVG Export Plug-In . SVG Version: 6.00 Build 0)  -->
<!DOCTYPE svg PUBLIC "-//W3C//DTD SVG 1.1//EN" "http://www.w3.org/Graphics/SVG/1.1/DTD/svg11.dtd">
<svg version="1.1" xmlns="http://www.w3.org/2000/svg" xmlns:xlink="http://www.w3.org/1999/xlink" x="0px" y="0px" width="1024px"
	 height="1024px" viewBox="0 0 1024 1024" enable-background="new 0 0 1024 1024" xml:space="preserve">
<g id="Layer_1">
	<g>
		
			<image overflow="visible" opacity="0.75" enable-background="new    " width="4533" height="4604" xlink:href="internshipwork/55107F83BE891DA.png"  transform="matrix(0.2512 0 0 0.2481 -57.8863 -61.5038)">
		</image>
		<g>
			<path fill="#2A6CAC" d="M1020.291,1008.608c0,6.615-5.34,11.977-11.926,11.977H14.555c-6.587,0-11.926-5.362-11.926-11.977
				V10.471c0-6.615,5.339-11.977,11.926-11.977h993.81c6.587,0,11.926,5.362,11.926,11.977V1008.608z"/>
			<path fill="none" stroke="#010101" stroke-width="0.996" stroke-miterlimit="10" d="M1020.291,1008.608
				c0,6.615-5.34,11.977-11.926,11.977H14.555c-6.587,0-11.926-5.362-11.926-11.977V10.471c0-6.615,5.339-11.977,11.926-11.977
				h993.81c6.587,0,11.926,5.362,11.926,11.977V1008.608z"/>
		</g>
	</g>
	<rect x="-1136.383" y="2020.38" fill="none" width="3877.551" height="2725.09"/>
	<text transform="matrix(1 0 0 1 -1136.3828 2477.4116)" font-family="'Roboto-Regular'" font-size="600">Roomquest</text>
	
		<ellipse fill="none" stroke="#FFFFFF" stroke-width="57" stroke-miterlimit="10" cx="512" cy="551.563" rx="424.807" ry="423.531"/>
	<path opacity="0.6" fill="#FFFFFF" d="M138.148,425.611h746.383c0,0-260.766-214.604-275.495-214.604
		s-137.471,83.17-140.744,87.791c-3.273,4.621-52.37-27.723-62.189-30.804c-9.819-3.08-86.738,56.987-86.738,61.608
		s-36.004,4.621-36.004,4.621s-29.458-13.344-36.004-15.913C247.357,318.309,153.318,404.566,138.148,425.611z"/>
	<path fill="#FFFFFF" stroke="#000000" stroke-width="0.1188" stroke-miterlimit="10" d="M227.25,493.653
		c0,0,74.063-34.254,87.9-52.14c0,0,51.972-34.085,67.833-35.772c0,0,17.886-6.075,22.274-6.075c0,0,38.135-49.609,45.222-50.959
		c0,0,31.048-23.286,40.16-25.311l24.298,1.687c0,0,25.648-13.836,31.385-22.611c0,0,31.048-26.661,34.423-31.385l14.849-17.886
		c0,0,6.412-11.474,15.862-11.137c0,0,18.561,0,20.586,14.512l0,3.037c0,0,3.037,2.362,3.375,3.037v5.737
		c0,0,7.087,5.737,8.774,15.187c0,0,0.337,31.385,0,31.385c-0.337,0,2.025,10.462,2.025,10.462l-5.4-2.362
		c0,0-11.137,54.334-12.824,55.009c0,0-3.712,16.536-3.375,18.899l14.174-4.05c0,0,0-18.561-3.375-18.899
		c0,0,17.549,3.375,19.574,15.187l5.062,0c0,0,3.712-5.737-3.037-11.812c0,0,10.799-1.012,17.211,10.124
		c0,0,11.812,1.35,12.149,9.112c0,0,0.337,13.162,0,13.837c0,0-109.343,106.643-109.343,111.03c0,0,18.561-12.487,20.924-12.149
		c0,0-27.336,74.245-28.011,96.181c0,0-6.075,39.485-6.75,52.309c0,0,55.093,199.808-2.025,82.007s-190.674-81.67-195.399-78.633
		l37.798-66.483c0,0-55.009-16.537-68.508,6.412c0,0,21.599-29.698,40.497-29.698c0,0-47.247-8.1-56.696,8.099
		c0,0,25.648-33.748,51.297-35.098l-4.05-18.899C366.109,525.545,238.231,538.707,227.25,493.653z"/>
	<path fill="#2A6CAC" d="M1020.291,634.33c0-6.627-5.436-12-12.142-12H14.771c-6.706,0-12.142,5.373-12.142,12v374.255
		c0,6.627,5.436,12,12.142,12h993.377c6.706,0,12.142-5.373,12.142-12V634.33z"/>
	<rect x="162.015" y="622.33" fill="none" width="750.075" height="264.026"/>
	<text transform="matrix(1 0 0 1 162.0152 724.4007)" fill="#FFFFFF" font-family="'Roboto-Regular'" font-size="134">Roomquest</text>
	<rect x="869" y="725.384" fill="none" width="224" height="146"/>
	<text transform="matrix(1 0 0 1 869 767.9838)" fill="#FFFFFF" font-family="'MyriadPro-Regular'" font-size="60">tm</text>
</g>
<g id="text">
</g>
</svg>
