<?xml version="1.0" encoding="utf-8"?>
<!-- Generator: Adobe Illustrator 17.0.2, SVG Export Plug-In . SVG Version: 6.00 Build 0)  -->
<!DOCTYPE svg PUBLIC "-//W3C//DTD SVG 1.1//EN" "http://www.w3.org/Graphics/SVG/1.1/DTD/svg11.dtd">
<svg version="1.1" id="Layer_1" xmlns="http://www.w3.org/2000/svg" xmlns:xlink="http://www.w3.org/1999/xlink" x="0px" y="0px"
	 width="1024px" height="1024px" viewBox="0 0 1024 1024" enable-background="new 0 0 1024 1024" xml:space="preserve">
<g opacity="0.8">
	
		<image overflow="visible" opacity="0.75" width="4529" height="4598" xlink:href="55107F83BE891DA.png"  transform="matrix(0.24 0 0 0.24 -28.1799 -39.0549)">
	</image>
	<g>
		<path fill="#286BAA" d="M1000.875,995.003c0,6.393-5.096,11.575-11.381,11.575H41.069c-6.286,0-11.381-5.182-11.381-11.575V30.388
			c0-6.393,5.095-11.575,11.381-11.575h948.425c6.286,0,11.381,5.182,11.381,11.575V995.003z"/>
		<path fill="none" stroke="#000000" stroke-width="0.9565" stroke-miterlimit="10" d="M1000.875,995.003
			c0,6.393-5.096,11.575-11.381,11.575H41.069c-6.286,0-11.381-5.182-11.381-11.575V30.388c0-6.393,5.095-11.575,11.381-11.575
			h948.425c6.286,0,11.381,5.182,11.381,11.575V995.003z"/>
	</g>
</g>
<path fill="#FDFDFE" d="M669.265,501.724c0,11.221-9.097,20.318-20.318,20.318H145.983c-11.221,0-20.318-9.097-20.318-20.318
	v-12.833c0-11.221,9.097-20.318,20.318-20.318h502.964c11.221,0,20.318,9.097,20.318,20.318V501.724z"/>
<path fill="#FFFFFF" d="M125.665,551.747c0,0-86.144,219.816,210.905,234.669v65.351h-181.2l-2.971,71.292h478.249v-71.292h-77.233
	l-2.97-86.144c0,0,118.82-3.446,118.82-133.672c0,0,166.348,35.646,169.318-109.908c0,0,68.321,23.323,62.38-71.512l32.675-371.091
	c0,0-5.941-32.675-38.616-32.675H758.38c0,0-29.705,0-29.705,38.616v399.531c0,0,14.852,34.161,38.616,37.131
	c0,0,17.823,50.498-98.026,47.528v-17.823H125.665z"/>
</svg>
